# xmcd
#
# Track frame offsets:
#	150
#	9757
#	23269
#	38775
#	53633
#	66762
#	87915
#
# Disc length: 1384 seconds
#
# Revision: 1
# Processed by: cddbd v1.5.2PL0 Copyright (c) Steve Scherf et al.
# Submitted via: audiograbber 1.83.01
#
DISCID=40056607
DTITLE=Jan Arild Sørnes - Twist
DYEAR=2008
DGENRE=Soul Blues
TTITLE0=woman in my bed
TTITLE1=talk to me
TTITLE2=beggar's blues
TTITLE3=travellin' mood
TTITLE4=those days
TTITLE5=nowhere in this world
TTITLE6=love and affection
EXTD=
EXTT0=
EXTT1=
EXTT2=
EXTT3=
EXTT4=
EXTT5=
EXTT6=
PLAYORDER=
